<svg id="Solid_gradient" height="90" viewBox="0 0 512 512" width="90" xmlns="http://www.w3.org/2000/svg" xmlns:xlink="http://www.w3.org/1999/xlink" data-name="Solid gradient"><linearGradient id="linear-gradient" gradientUnits="userSpaceOnUse" x1="256" x2="256" y1="-80.116" y2="628.123"><stop offset="0" stop-color="#ff91d2"/><stop offset=".262" stop-color="#f68bd9"/><stop offset=".688" stop-color="#de79ed"/><stop offset=".999" stop-color="#c86aff"/></linearGradient><linearGradient id="linear-gradient-3" x1="352" x2="352" xlink:href="#linear-gradient" y1="-80.116" y2="628.123"/><linearGradient id="linear-gradient-8" x1="40" x2="40" xlink:href="#linear-gradient" y1="-80.116" y2="628.123"/><linearGradient id="linear-gradient-9" x1="472" x2="472" xlink:href="#linear-gradient" y1="-80.116" y2="628.123"/><g><path d="m328 207.98v.02h-176v112h208v-104.8a39.986 39.986 0 0 1 -32-7.216zm-160 16.02h40v16h-40zm0 32h24v16h-24zm96 48h-96v-16h96zm16-32h-72v-16h72zm0-32h-56v-16h56z" fill="url(#linear-gradient)"/><path d="m448 80h-384v272h384zm-36.116 142.86-31.379-18.827a40.168 40.168 0 0 1 -4.5 3.947v120.02a8 8 0 0 1 -8 8h-224.005a8 8 0 0 1 -8-8v-128a8 8 0 0 1 8-8h171.34a39.769 39.769 0 0 1 -3.34-16h-148a28.032 28.032 0 0 1 -28-28v-24a28.032 28.032 0 0 1 28-28h184a28.032 28.032 0 0 1 28 28v20.02a39.976 39.976 0 0 1 13.237 46.592l30.879 18.528z" fill="url(#linear-gradient)"/><circle cx="352" cy="176" fill="url(#linear-gradient-3)" r="24"/><g fill="url(#linear-gradient)"><path d="m448 32h-384v32h384zm-352 24h-16v-16h16zm32 0h-16v-16h16zm32 0h-16v-16h16zm272 0h-16v-16h16z"/><path d="m352 136a40.028 40.028 0 0 1 8 .8v-12.8a12.013 12.013 0 0 0 -12-12h-184a12.013 12.013 0 0 0 -12 12v24a12.013 12.013 0 0 0 12 12h151.34a40.061 40.061 0 0 1 36.66-24zm-168 16h-16v-32h16z"/><path d="m464 360a8 8 0 0 1 -8 8h-400a8 8 0 0 1 -8-8v-16h-16v54a2 2 0 0 0 2 2h444a2 2 0 0 0 2-2v-54h-16z"/><path d="m335.794 467.031-6.973-2.324a47.938 47.938 0 0 1 -32.821-45.537v-3.17h-80v3.17a47.939 47.939 0 0 1 -32.82 45.537l-6.975 2.324a11.986 11.986 0 0 0 -8.205 11.384v1.585h176v-1.585a11.985 11.985 0 0 0 -8.206-11.384z"/></g><path d="m48 136h-14a2 2 0 0 0 -2 2v190h16z" fill="url(#linear-gradient-8)"/><path d="m478 136h-14v192h16v-190a2 2 0 0 0 -2-2z" fill="url(#linear-gradient-9)"/></g></svg>